<?xml version="1.0" encoding="UTF-8"?>
<svg version="1.1"
     xmlns="http://www.w3.org/2000/svg"
     width="200"
     height="200">
    <path d="M0 0 C10.56 0 21.12 0 32 0 C32 1.32 32 2.64 32 4 C33.32 4 34.64 4 36 4 C36 5.32 36 6.64 36 8 C37.32 8 38.64 8 40 8 C40 9.32 40 10.64 40 12 C41.32 12 42.64 12 44 12 C44 39.72 44 67.44 44 96 C59.84 96 75.68 96 92 96 C92 97.32 92 98.64 92 100 C93.32 100 94.64 100 96 100 C96 101.32 96 102.64 96 104 C97.32 104 98.64 104 100 104 C100 105.32 100 106.64 100 108 C101.32 108 102.64 108 104 108 C104 118.56 104 129.12 104 140 C102.68 140 101.36 140 100 140 C100 141.32 100 142.64 100 144 C69.64 144 39.28 144 8 144 C8 142.68 8 141.36 8 140 C6.68 140 5.36 140 4 140 C4 138.68 4 137.36 4 136 C2.68 136 1.36 136 0 136 C0 134.68 0 133.36 0 132 C-1.32 132 -2.64 132 -4 132 C-4 89.76 -4 47.52 -4 4 C-2.68 4 -1.36 4 0 4 C0 2.68 0 1.36 0 0 Z "
          fill="#33b8a8"
          transform="translate(52,24)" />
    <path d="M0 0 C1.32 0 2.64 0 4 0 C4 1.32 4 2.64 4 4 C5.32 4 6.64 4 8 4 C8 14.56 8 25.12 8 36 C6.68 36 5.36 36 4 36 C4 37.32 4 38.64 4 40 C-26.36 40 -56.72 40 -88 40 C-88 38.68 -88 37.36 -88 36 C-89.32 36 -90.64 36 -92 36 C-92 34.68 -92 33.36 -92 32 C-62.96 32 -33.92 32 -4 32 C-4 30.68 -4 29.36 -4 28 C-2.68 28 -1.36 28 0 28 C0 18.76 0 9.52 0 0 Z "
          fill="#AAAAAA"
          transform="translate(148,128)" />
    <path d="M0 0 C1.32 0 2.64 0 4 0 C4 1.32 4 2.64 4 4 C5.32 4 6.64 4 8 4 C8 31.72 8 59.44 8 88 C5.36 88 2.72 88 0 88 C0 58.96 0 29.92 0 0 Z "
          fill="#AAAAAA"
          transform="translate(88,32)" />
    <path d="M0 0 C1.32 0 2.64 0 4 0 C4 42.24 4 84.48 4 128 C2.68 128 1.36 128 0 128 C0 85.76 0 43.52 0 0 Z "
          fill="#000000"
          transform="translate(48,28)" />
    <path d="M0 0 C30.36 0 60.72 0 92 0 C92 1.32 92 2.64 92 4 C61.64 4 31.28 4 0 4 C0 2.68 0 1.36 0 0 Z "
          fill="#000000"
          transform="translate(52,156)" />
    <path d="M0 0 C1.32 0 2.64 0 4 0 C4 30.36 4 60.72 4 92 C2.68 92 1.36 92 0 92 C0 61.64 0 31.28 0 0 Z "
          fill="#000000"
          transform="translate(84,28)" />
    <path d="M0 0 C18.48 0 36.96 0 56 0 C56 1.32 56 2.64 56 4 C37.52 4 19.04 4 0 4 C0 2.68 0 1.36 0 0 Z "
          fill="#000000"
          transform="translate(88,120)" />
    <path d="M0 0 C1.32 0 2.64 0 4 0 C4 10.56 4 21.12 4 32 C2.68 32 1.36 32 0 32 C0 21.44 0 10.88 0 0 Z "
          fill="#000000"
          transform="translate(144,124)" />
    <path d="M0 0 C10.56 0 21.12 0 32 0 C32 1.32 32 2.64 32 4 C21.44 4 10.88 4 0 4 C0 2.68 0 1.36 0 0 Z "
          fill="#000000"
          transform="translate(52,24)" />
</svg>