<?xml version="1.0" encoding="UTF-8"?>
<svg version="1.1"
     xmlns="http://www.w3.org/2000/svg"
     width="300"
     height="300">
    <path d="M0 0 C99 0 198 0 300 0 C300 99 300 198 300 300 C260.4 300 220.8 300 180 300 C180 293.4 180 286.8 180 280 C213 280 246 280 280 280 C280 194.2 280 108.4 280 20 C240.4 20 200.8 20 160 20 C160 33.2 160 46.4 160 60 C127 60 94 60 60 60 C60 119.4 60 178.8 60 240 C119.4 240 178.8 240 240 240 C240 180.6 240 121.2 240 60 C233.4 60 226.8 60 220 60 C220 53.4 220 46.8 220 40 C233.2 40 246.4 40 260 40 C260 112.6 260 185.2 260 260 C227 260 194 260 160 260 C160 273.2 160 286.4 160 300 C107.2 300 54.4 300 0 300 C0 201 0 102 0 0 Z M20 20 C20 59.6 20 99.2 20 140 C26.6 140 33.2 140 40 140 C40 107 40 74 40 40 C73 40 106 40 140 40 C140 33.4 140 26.8 140 20 C100.4 20 60.8 20 20 20 Z M20 160 C20 199.6 20 239.2 20 280 C59.6 280 99.2 280 140 280 C140 273.4 140 266.8 140 260 C107 260 74 260 40 260 C40 227 40 194 40 160 C33.4 160 26.8 160 20 160 Z "
          fill="#33b8a8"
          transform="translate(0,0)" />
</svg>